<?xml version="1.0" standalone="no"?>
<!DOCTYPE svg PUBLIC "-//W3C//DTD SVG 20010904//EN"
 "http://www.w3.org/TR/2001/REC-SVG-20010904/DTD/svg10.dtd">
<svg version="1.0" xmlns="http://www.w3.org/2000/svg"
 width="1280.000000pt" height="1266.000000pt" viewBox="0 0 1280.000000 1266.000000"
 preserveAspectRatio="xMidYMid meet">
<metadata>
Created by potrace 1.15, written by Peter Selinger 2001-2017
</metadata>
<g transform="translate(0.000000,1266.000000) scale(0.100000,-0.100000)"
fill="#000000" stroke="none">
<path d="M9332 12268 c-228 -270 -941 -1228 -2673 -3593 -1193 -1628 -2077
-2833 -2114 -2882 l-32 -43 -439 298 c-242 164 -841 572 -1333 906 -727 494
-896 605 -906 594 -7 -7 -306 -514 -665 -1127 l-653 -1114 27 -316 c15 -174
29 -330 31 -347 4 -24 37 -57 180 -178 96 -82 173 -152 172 -156 -4 -13 143
-174 241 -264 117 -107 319 -281 752 -647 1050 -888 1986 -1660 2457 -2027
495 -385 617 -454 808 -455 104 -1 163 18 266 85 145 93 496 474 1184 1288
262 309 326 385 585 700 43 52 138 167 210 255 302 366 516 628 974 1194 207
256 890 1110 1176 1471 124 156 295 372 381 479 85 108 197 250 249 316 52 66
175 224 274 350 99 127 291 371 426 544 135 172 254 325 265 340 11 15 38 50
60 77 83 100 150 188 138 181 -19 -12 -16 8 4 24 15 12 16 12 8 -1 -5 -9 0 -8
13 4 25 21 31 36 7 16 -24 -20 -17 5 7 26 13 12 18 13 13 4 -5 -9 0 -8 13 4
25 21 31 36 7 16 -24 -20 -17 5 7 26 13 12 18 13 13 4 -8 -13 -7 -13 8 -1 18
15 23 26 7 16 -17 -10 -11 12 7 26 15 12 16 12 8 -1 -8 -13 -7 -13 8 -1 18 15
23 26 7 16 -18 -11 -10 12 10 30 20 18 21 18 14 -1 -8 -20 -6 -20 16 10 10 13
10 17 3 12 -7 -4 -13 -3 -13 2 0 10 29 37 39 37 3 0 5 4 3 9 -4 13 19 36 31
29 6 -4 7 -1 3 6 -10 15 23 53 37 44 6 -3 7 -1 3 6 -8 13 12 44 23 36 4 -2 8
2 8 8 0 7 85 123 190 257 104 135 239 309 300 388 l110 143 6 232 c4 128 7
283 7 345 l0 113 -57 53 c-966 885 -1276 1161 -1553 1385 -395 319 -756 562
-1116 748 -88 46 -163 83 -166 83 -3 0 -37 -37 -76 -82z m2021 -4090 c-319
-403 -1084 -1358 -1088 -1358 -3 0 66 89 153 198 87 108 332 416 546 685 213
268 390 487 393 487 3 0 1 -6 -4 -12z m-1093 -1371 c0 -2 -10 -12 -22 -23
l-23 -19 19 23 c18 21 26 27 26 19z m-100 -122 c-34 -41 -64 -75 -66 -75 -3 0
22 34 56 75 34 41 64 75 66 75 3 0 -22 -34 -56 -75z m-70 -88 c0 -2 -10 -12
-22 -23 l-23 -19 19 23 c18 21 26 27 26 19z m-40 -50 c0 -2 -10 -12 -22 -23
l-23 -19 19 23 c18 21 26 27 26 19z m-40 -50 c0 -2 -12 -14 -27 -28 l-28 -24
24 28 c23 25 31 32 31 24z m-50 -60 c0 -2 -10 -12 -22 -23 l-23 -19 19 23 c18
21 26 27 26 19z m-40 -50 c0 -2 -10 -12 -22 -23 l-23 -19 19 23 c18 21 26 27
26 19z m-40 -50 c0 -2 -10 -12 -22 -23 l-23 -19 19 23 c18 21 26 27 26 19z
m-40 -50 c0 -2 -10 -12 -22 -23 l-23 -19 19 23 c18 21 26 27 26 19z m-50 -61
c0 -2 -8 -10 -17 -17 -16 -13 -17 -12 -4 4 13 16 21 21 21 13z m-40 -49 c0 -2
-10 -12 -22 -23 l-23 -19 19 23 c18 21 26 27 26 19z m-40 -50 c0 -2 -10 -12
-22 -23 l-23 -19 19 23 c18 21 26 27 26 19z m-40 -50 c0 -2 -10 -12 -22 -23
l-23 -19 19 23 c18 21 26 27 26 19z m-50 -61 c0 -2 -8 -10 -17 -17 -16 -13
-17 -12 -4 4 13 16 21 21 21 13z m-40 -50 c0 -2 -8 -10 -17 -17 -16 -13 -17
-12 -4 4 13 16 21 21 21 13z m-40 -50 c0 -2 -8 -10 -17 -17 -16 -13 -17 -12
-4 4 13 16 21 21 21 13z m-40 -49 c0 -2 -10 -12 -22 -23 l-23 -19 19 23 c18
21 26 27 26 19z m-40 -50 c0 -2 -10 -12 -22 -23 l-23 -19 19 23 c18 21 26 27
26 19z m-50 -61 c0 -2 -8 -10 -17 -17 -16 -13 -17 -12 -4 4 13 16 21 21 21 13z
m-40 -50 c0 -2 -8 -10 -17 -17 -16 -13 -17 -12 -4 4 13 16 21 21 21 13z m-40
-50 c0 -2 -8 -10 -17 -17 -16 -13 -17 -12 -4 4 13 16 21 21 21 13z m-50 -60
c0 -2 -8 -10 -17 -17 -16 -13 -17 -12 -4 4 13 16 21 21 21 13z m-30 -39 c0 -2
-10 -12 -22 -23 l-23 -19 19 23 c18 21 26 27 26 19z m-50 -61 c0 -2 -8 -10
-17 -17 -16 -13 -17 -12 -4 4 13 16 21 21 21 13z m-50 -60 c0 -2 -8 -10 -17
-17 -16 -13 -17 -12 -4 4 13 16 21 21 21 13z m-90 -110 c0 -2 -8 -10 -17 -17
-16 -13 -17 -12 -4 4 13 16 21 21 21 13z m-90 -110 c0 -2 -8 -10 -17 -17 -16
-13 -17 -12 -4 4 13 16 21 21 21 13z m-90 -110 c0 -2 -8 -10 -17 -17 -16 -13
-17 -12 -4 4 13 16 21 21 21 13z m-7875 -857 c11 -13 -1 -6 -27 15 -27 21 -48
40 -48 43 0 8 54 -34 75 -58z m50 -39 c10 -11 16 -20 13 -20 -3 0 -13 9 -23
20 -10 11 -16 20 -13 20 3 0 13 -9 23 -20z m60 -50 c10 -11 16 -20 13 -20 -3
0 -13 9 -23 20 -10 11 -16 20 -13 20 3 0 13 -9 23 -20z m66 -57 c13 -16 12
-17 -3 -4 -10 7 -18 15 -18 17 0 8 8 3 21 -13z m4075 -3148 c-11 -8 -25 -15
-30 -15 -6 1 0 7 14 15 32 19 40 18 16 0z"/>
</g>
</svg>
